<svg xmlns="http://www.w3.org/2000/svg" width="165.135" height="22.793" viewBox="0 0 165.135 22.793">
  <path id="Path_8" data-name="Path 8" 
  d="M10.107,8.732q-0.059-0.249-0.117-0.439.073-0.425.161-0.828t.146-0.828a3.935,3.935,0,0,1,.359-01.011,1.032,1.032,0,0,1,.461-0.483l.938-0.4q.161-0.059.454-0.146a.245.245,0,0,1,.234.146.976.976,0,0,1,.073.425q0,.1-0.073.586t-0.205,1.362q-0.029.205-0.051.425t-0.066.439a.773.773,0,0,1-0.1.344q-0.1.2-0.264.461a3.578,3.578,0,0,1-0.315,1.421q-0.388,1.128-01.208,3.047-0.688,1.6-01.216,2.8t-0.923,1.978q-0.205.41-0.469.886t-0.542.989q.132.308.249.557a.841.841,0,0,1-0.059.293q-0.205.234-0.513.6t-0.718.82q-0.278.132-0.6.293-0.22.293-0.366.513a2.851,2.851,0,0,1-0.52.242,1.421,1.421,0,0,1-0.447.081.912.912,0,0,1-0.681-0.352,1.076,1.076,0,0,1-0.315-0.718,1.024,1.024,0,0,1,.337-0.615,2.269,2.269,0,0,0,.381-0.483l-0.044-0.146L3.94,20.8a4.04,4.04,0,0,0-0.161-0.667,4.051,4.051,0,0,0-0.249-0.579,5.19,5.19,0,0,1-0.469-01.077q-0.205-0.637-0.381-01.458-0.073-0.381-0.11-0.608a2.409,2.409,0,0,1-0.037-0.3,2.235,2.235,0,0,1-0.132-0.293q-0.073-0.19-0.161-0.439-0.073-0.483-0.183-01.216t-0.227-01.714a1.283,1.283,0,0,0-0.037-0.278q-0.037-0.161-0.11-0.4a2.035,2.035,0,0,1-0.117-0.381,1.65,1.65,0,0,1-0.029-0.293q.015-0.425.015-0.835a.865.865,0,0,1-0.059-0.381l.117-0.571a1.819,1.819,0,0,1-0.242-0.5,2.234,2.234,0,0,1-0.1-0.688.874.874,0,0,1,.044-0.278,1.9,1.9,0,0,1,.1-0.249A3.984,3.984,0,0,1,1.3,7.128a2.908,2.908,0,0,1-0.044-0.52,1.684,1.684,0,0,1-0.212-0.432A.666.666,0,0,1,1.025,5.8l.088-0.586q-0.059-0.22-0.1-0.366.161-0.879.278-01.406a5.688,5.688,0,0,1,.176-0.674,2.054,2.054,0,0,1,.623-0.828,2.324,2.324,0,0,1,1-0.432q.205-0.146.359-0.234a.582.582,0,0,1,.286-0.088.4.4,0,0,1,.3.154,1.157,1.157,0,0,1,.227.447,2.561,2.561,0,0,1,.1.483,2.515,2.515,0,0,1,.007.425q-0.059.542-0.117,1.245T4.16,5.51a2.781,2.781,0,0,1-0.132.33.946.946,0,0,0-0.1.359,1.772,1.772,0,0,0,.1.469,1.772,1.772,0,0,1,.1.469,3.119,3.119,0,0,1-0.029.322q-0.029.234-0.088.894.059.337.146.7a5.033,5.033,0,0,1-0.044.527,5.043,5.043,0,0,0-0.044.542.318.318,0,0,0,.029.154,2.771,2.771,0,0,1,.117.4q.015.322.066.74t.125.989l.183,1.245q.11.747.212,1.729l.015.483a.64.64,0,0,0,.059.242,1.223,1.223,0,0,0,.176.286q.088.4.19.85t.205.938a.533.533,0,0,0,.1.249.209.209,0,0,0,.161.088,3.093,3.093,0,0,0,.513-0.659,3.413,3.413,0,0,0,.344-0.593q.212-0.432.505-01.165a3.709,3.709,0,0,1,.22-0.454q.146-0.264.337-0.6a8.258,8.258,0,0,0,.527-01.069q.337-0.776.82-02.051.4-01.055.667-01.787t.388-01.128Zm2.446,9.258,1.333-0.879q.073-0.073.176-0.2a2.548,2.548,0,0,0,.234-0.359,1.017,1.017,0,0,1,.271-0.322A2,2,0,0,1,14.956,16a4.715,4.715,0,0,1,.337-0.366q.22-0.22.557-0.513.161-0.088.41-0.256a4.325,4.325,0,0,0,.542-0.447,15.83,15.83,0,0,1,2.336-01.89,3.386,3.386,0,0,1,1.692-0.63.836.836,0,0,1,.564.161.573.573,0,0,1,.183.454,1.264,1.264,0,0,1-0.11.542.985.985,0,0,1-0.344.4q-0.366.264-0.791.586a7.076,7.076,0,0,1-0.571.652,6.642,6.642,0,0,1-0.791.681q-0.146.19-0.249.337-0.073.073-0.278.264a6.429,6.429,0,0,1-0.542.439,3.407,3.407,0,0,1-0.637.835q-0.491.513-01.311,1.23a4.676,4.676,0,0,0-0.366.469q-0.264.366-0.688.967l.1.132a2.488,2.488,0,0,0,.674-0.352,6.843,6.843,0,0,0,.776-0.659l.813-0.74a4.693,4.693,0,0,1,.447-0.374l.205-0.117q.1-0.059.234-0.146a6.177,6.177,0,0,1,1.26-01.194,2,2,0,0,1,1.084-0.388.528.528,0,0,1,.469.242,1.486,1.486,0,0,1,.19.725q-0.029.732-0.029,1.406a1.325,1.325,0,0,0,.256.842.839.839,0,0,0,.71.374.5.5,0,0,0,.256-0.073,1.649,1.649,0,0,0,.256-0.19q.1-0.132.2-0.249t.2-0.234a1.738,1.738,0,0,0,.168-0.1,1.4,1.4,0,0,0,.212-0.176q.205.439.344.769a5.537,5.537,0,0,1,.212.579q-0.337.308-0.667.637a8.435,8.435,0,0,1-0.7.623,3.769,3.769,0,0,1-0.85.505,2.145,2.145,0,0,1-0.82.168,1.92,1.92,0,0,1-01.465-0.542,2.631,2.631,0,0,1-0.6-01.641,1.063,1.063,0,0,0-0.037-0.271.785.785,0,0,0-0.154-0.286q-0.073.073-0.161.154t-0.205.212l-0.476.366q-0.286.22-0.667.527-0.513.527-0.864.864t-0.5.483a6.329,6.329,0,0,1-0.681.5q-0.388.249-0.872.513-0.308.161-0.527.256a.938.938,0,0,1-0.322.1,1.4,1.4,0,0,1-01.04-0.344A1.467,1.467,0,0,1,12,21.74a1.755,1.755,0,0,1,.168-0.754,2.491,2.491,0,0,1,.505-0.7,2.119,2.119,0,0,0,.029-0.308.372.372,0,0,0-0.037-0.154q-0.037-0.081-0.1-0.183l-0.2-0.461q-0.11-0.256-0.242-0.549a1.576,1.576,0,0,0,.168-0.227Q12.407,18.239,12.554,17.99Zm10.8.645a2.537,2.537,0,0,0,.264-0.359,3.514,3.514,0,0,1,.352-0.461l.967-0.85A.16.16,0,0,0,25,16.848q.007-0.073.007-0.205a1.92,1.92,0,0,0-0.044-0.308,7.906,7.906,0,0,1,.132-01.128,3.564,3.564,0,0,1,.234-0.952l-0.088-0.278q.19-0.981.535-02.146T26.558,9.3a5.006,5.006,0,0,0,.308-0.593l.366-0.813a12.329,12.329,0,0,1,.659-01.6q.41-0.835.923-01.714a11.047,11.047,0,0,1,1.223-01.743A1.441,1.441,0,0,1,31,2.258a1.6,1.6,0,0,1,1.165.33,1.816,1.816,0,0,1,.315,1.238,4.98,4.98,0,0,1-0.081.725,5,5,0,0,0-0.081.74,2.291,2.291,0,0,1-0.161.7,2.514,2.514,0,0,0-0.161.835.723.723,0,0,1-0.073.234l.015.205q-0.059.205-0.176.5t-0.308.7q-0.1.366-0.264.85t-0.381,1.055q-0.088.146-0.227.359t-0.3.476a2.881,2.881,0,0,1-0.146.439q-0.1.249-0.278.586a2.888,2.888,0,0,1-0.234.381q-0.146.205-0.352.527a4.068,4.068,0,0,0-0.19.366q-0.1.22-0.234.5-0.161.249-0.425.615t-0.6.864q-0.454.806-0.937,1.538a3.452,3.452,0,0,0,.564,2.146,2.011,2.011,0,0,0,1.692.725,2.706,2.706,0,0,0,.439-0.1q.366-0.1,1.011-0.322a4.581,4.581,0,0,0,.454-0.33q.264-0.212.6-0.505l.571,1.348q-0.381.337-0.762.688t-0.776.688a3.656,3.656,0,0,1-0.923.579,2.362,2.362,0,0,1-0.923.2q-0.234,0-0.718-0.051t-0.732-0.051a1.671,1.671,0,0,1-01.355-0.659,4.241,4.241,0,0,1-0.754-01.978,1.016,1.016,0,0,0-0.081-0.234A.964.964,0,0,0,25,18.928q-0.19.19-0.447.454t-0.623.6Zm6.987-011.5-0.1-0.059A7.387,7.387,0,0,0,29,8.571a2.668,2.668,0,0,0-0.417,1.362,1.116,1.116,0,0,1-0.1.344q-0.1.242-0.286.623-0.234.454-0.483,1-0.278.82-0.425,1.333a3.1,3.1,0,0,0-0.146.732l.088.117q.132-0.015.322-0.264a5.1,5.1,0,0,0,.439-0.732,5.119,5.119,0,0,1,.337-0.615q.22-0.352.5-0.835a9.369,9.369,0,0,0,.747-01.655,10.1,10.1,0,0,0,.557-01.7,3.3,3.3,0,0,1,.081-0.579Q30.278,7.414,30.337,7.136Zm1.274,11.5a3.784,3.784,0,0,1,.454-0.623,5.494,5.494,0,0,1,.7-0.652q.044-0.293.088-0.579a5.662,5.662,0,0,0,.059-0.579,4.335,4.335,0,0,1,.139-0.483q.1-0.278.212-0.6t.359-0.806a11.555,11.555,0,0,1,.593-01.084q.308-0.337.645-0.74t.674-0.813a3.215,3.215,0,0,1,.352-0.249,4.456,4.456,0,0,0,.381-0.264,3.307,3.307,0,0,1,.4-0.1,2.469,2.469,0,0,1,.483-0.044,1.979,1.979,0,0,1,.593.073.791.791,0,0,1,.374.249,1.264,1.264,0,0,1,.2.352,4.677,4.677,0,0,1,.183.571q.044.293.1.645,0-0.088-0.051.073t-0.154.513l-0.132.469a5.15,5.15,0,0,1-0.923,1.626A21.5,21.5,0,0,1,35.405,17.7a.914.914,0,0,0-0.176.256.757.757,0,0,0-0.073.33,1.264,1.264,0,0,0,.11.542.765.765,0,0,0,.315.352,1.412,1.412,0,0,0,.374.176,5.109,5.109,0,0,0,.608.161,4.692,4.692,0,0,0,1.04-0.19,4.38,4.38,0,0,0,.835-0.352q.073-0.044.234-0.125a1.743,1.743,0,0,0,.322-0.212q.19.425.337.762t.234.586a8.864,8.864,0,0,1-01.516,1.238,2.438,2.438,0,0,1-01.252.417,1.679,1.679,0,0,1-0.535.212,3.351,3.351,0,0,1-0.71.066,2.652,2.652,0,0,1-0.959-0.161,1.791,1.791,0,0,1-0.7-0.469,1.734,1.734,0,0,1-0.293-0.432q-0.146-0.286-0.308-0.681a2.179,2.179,0,0,0-0.249-0.476.332.332,0,0,0-0.264-0.154.458.458,0,0,0-0.264.11,1.887,1.887,0,0,0-0.322.33,3.619,3.619,0,0,0-0.205-0.542Q31.846,19.118,31.611,18.635ZM36.3,13.874q-0.322,0-0.864.842a2.767,2.767,0,0,0-0.542,1.238.172.172,0,0,0,.037.125.226.226,0,0,0,.154.037.3.3,0,0,0,.264-0.168l.19-0.315q.161-0.146.315-0.315l.3-0.33a1.613,1.613,0,0,0,.264-0.41,1.034,1.034,0,0,0,.088-0.41.391.391,0,0,0-0.051-0.212A.17.17,0,0,0,36.3,13.874Zm2.681,4.761.088-0.1a1.23,1.23,0,0,1,.256-0.439,2.491,2.491,0,0,1,.564-0.469q.483-0.308.754-0.5a1.483,1.483,0,0,0,.33-0.278,1.524,1.524,0,0,0,.176-0.249q.161-0.117.4-0.322t.527-0.5a1.037,1.037,0,0,0,.22-0.234,3.986,3.986,0,0,0,.234-0.366q.19-0.132.432-0.337t.564-0.527q.366-0.4.828-0.872t1.033-0.989a2.825,2.825,0,0,1,.359-0.139,1.129,1.129,0,0,1,.33-0.051,1.382,1.382,0,0,1,.989.315,1.187,1.187,0,0,1,.33.9,3.674,3.674,0,0,1-0.051.483q-0.051.337-0.11.85-0.205,1.479-0.293,1.8t-0.615,2.021a7.192,7.192,0,0,0-0.242.688q-0.125.41-0.3,1a.317.317,0,0,0,.146.117.832.832,0,0,0,.366-0.2q.264-0.2.7-0.593.513-0.469.806-0.718a4.32,4.32,0,0,1,.366-0.293l.322.725q.146.33.249.623a2.07,2.07,0,0,0-0.344.264,2.589,2.589,0,0,0-0.286.322q-0.308.205-0.71.469t-0.886.571q-0.22.22-0.593.535l-0.842.71-0.278.059a2.265,2.265,0,0,1-0.388.425,1.356,1.356,0,0,1-0.33.205q-0.234.088-0.469.168l-0.5.168a.355.355,0,0,1-0.234-0.19.747.747,0,0,1-0.059-0.381,3.826,3.826,0,0,1-0.352-0.908,4.59,4.59,0,0,1-0.132-01.143,2.26,2.26,0,0,1,.015-0.249q.015-0.132.029-0.234a2.96,2.96,0,0,1-0.1-0.454.909.909,0,0,1,.337-0.725,1.146,1.146,0,0,1,.762-0.286.325.325,0,0,1,.315.227q.1.227.2.227t.212-0.4a9.557,9.557,0,0,0,.212-01.179q.1-0.674.132-01.172t.029-0.762a.433.433,0,0,0-0.081-0.286.338.338,0,0,0-0.271-0.1,4.386,4.386,0,0,0-01.23.879q-01.04.879-02.9,2.622a2.506,2.506,0,0,1-0.168.249q-0.11.146-0.256.366a3.619,3.619,0,0,0-0.205-0.542Q39.214,19.118,38.979,18.635Zm9.17,0,.132-0.117a.735.735,0,0,1,.205-0.381,4.785,4.785,0,0,1,.542-0.513q.22-0.161.461-0.308a4.332,4.332,0,0,0,.461-0.322q.923-0.791,1.787-01.523a7.87,7.87,0,0,1,1-0.754,6.925,6.925,0,0,1,.938-0.505,3.3,3.3,0,0,1,1.15-0.806,3.345,3.345,0,0,1,1.37-0.41.461.461,0,0,1,.33.117.5.5,0,0,1,.154.293v.806a1.243,1.243,0,0,1-0.242.754,2.31,2.31,0,0,1-0.725.608q-0.322.146-0.645.322t-0.645.322a4.933,4.933,0,0,1-0.623.549q-0.505.4-01.37,1.077-0.4.308-0.659.549a2.674,2.674,0,0,0-0.366.388,2.627,2.627,0,0,0-0.227.615,3.357,3.357,0,0,0-0.081.776,1.477,1.477,0,0,0,.1.579.9.9,0,0,0,.308.388,2.032,2.032,0,0,0,.4.205,5.832,5.832,0,0,0,.637.205,3.912,3.912,0,0,1,.579-0.168q.359-0.081.8-0.212.5-0.293,1.018-0.615t1.033-0.659a2.034,2.034,0,0,1,.183-0.1.982.982,0,0,0,.227-0.154,4.257,4.257,0,0,1,.4-0.439q.256-0.249.623-0.571a14.682,14.682,0,0,1,.586,1.348q-0.542.439-01.1.9a4.857,4.857,0,0,1-01.274.754,5.209,5.209,0,0,0-0.4.352A4.834,4.834,0,0,1,53.518,23.1a6.166,6.166,0,0,1-02.219.374,2.553,2.553,0,0,1-0.5-0.044,1.469,1.469,0,0,1-0.366-0.117q-0.439-0.293-0.747-0.513a5.094,5.094,0,0,1-0.542-0.447,1.707,1.707,0,0,1-0.322-0.4,1.339,1.339,0,0,1-0.183-0.5,4.251,4.251,0,0,1-0.051-0.718,1.635,1.635,0,0,1,.073-0.381,1.647,1.647,0,0,0,.073-0.366,6.911,6.911,0,0,0-0.249-0.659Q48.34,18.986,48.149,18.635Zm9.712-0.645,1.333-0.879q.073-0.073.176-0.2a2.548,2.548,0,0,0,.234-0.359,1.017,1.017,0,0,1,.271-0.322A2,2,0,0,1,60.264,16a4.715,4.715,0,0,1,.337-0.366q.22-0.22.557-0.513.161-0.088.41-0.256a4.325,4.325,0,0,0,.542-0.447,15.83,15.83,0,0,1,2.336-01.89,3.386,3.386,0,0,1,1.692-0.63.836.836,0,0,1,.564.161.573.573,0,0,1,.183.454,1.264,1.264,0,0,1-0.11.542.985.985,0,0,1-0.344.4q-0.366.264-0.791.586a7.076,7.076,0,0,1-0.571.652,6.642,6.642,0,0,1-0.791.681q-0.146.19-0.249.337-0.073.073-0.278.264a6.429,6.429,0,0,1-0.542.439,3.407,3.407,0,0,1-0.637.835q-0.491.513-01.311,1.23a4.676,4.676,0,0,0-0.366.469q-0.264.366-0.688.967l.1.132a2.488,2.488,0,0,0,.674-0.352,6.843,6.843,0,0,0,.776-0.659l.813-0.74a4.693,4.693,0,0,1,.447-0.374l.205-0.117q.1-0.059.234-0.146a6.177,6.177,0,0,1,1.26-01.194,2,2,0,0,1,1.084-0.388.528.528,0,0,1,.469.242,1.486,1.486,0,0,1,.19.725q-0.029.732-0.029,1.406a1.325,1.325,0,0,0,.256.842.839.839,0,0,0,.71.374.5.5,0,0,0,.256-0.073,1.649,1.649,0,0,0,.256-0.19q.1-0.132.2-0.249t.2-0.234a1.738,1.738,0,0,0,.168-0.1,1.4,1.4,0,0,0,.212-0.176q.205.439.344.769a5.537,5.537,0,0,1,.212.579q-0.337.308-0.667.637a8.435,8.435,0,0,1-0.7.623,3.769,3.769,0,0,1-0.85.505,2.145,2.145,0,0,1-0.82.168,1.92,1.92,0,0,1-01.465-0.542,2.631,2.631,0,0,1-0.6-01.641,1.063,1.063,0,0,0-0.037-0.271.785.785,0,0,0-0.154-0.286q-0.073.073-0.161.154t-0.205.212l-0.476.366q-0.286.22-0.667.527-0.513.527-0.864.864t-0.5.483a6.329,6.329,0,0,1-0.681.5q-0.388.249-0.872.513-0.308.161-0.527.256a.938.938,0,0,1-0.322.1,1.4,1.4,0,0,1-01.04-0.344A1.467,1.467,0,0,1,57.3,21.74a1.755,1.755,0,0,1,.168-0.754,2.491,2.491,0,0,1,.505-0.7,2.119,2.119,0,0,0,.029-0.308.372.372,0,0,0-0.037-0.154q-0.037-0.081-0.1-0.183l-0.2-0.461q-0.11-0.256-0.242-0.549a1.576,1.576,0,0,0,.168-0.227Q57.715,18.239,57.861,17.99Zm28.682.645.586,1.348a2.266,2.266,0,0,1-0.9.278q-0.7.117-01.809.205a16.946,16.946,0,0,1-02.571,2.095,10.363,10.363,0,0,1-02.542,1.23q-0.293.088-0.674.19a1.594,1.594,0,0,1-0.513-0.1,4.5,4.5,0,0,1-0.615-0.271,2.683,2.683,0,0,1-0.542-0.425.623.623,0,0,1-0.19-0.425,1.189,1.189,0,0,1,.425-0.85,4.348,4.348,0,0,1,1.245-0.776q1.641-0.762,3.237-01.538a.487.487,0,0,1,.337.1.315.315,0,0,1,.1.242q0,.4-0.564.667t-0.564.388q.1.146.176.146.19,0,.842-0.571t.637-0.718l-0.073-0.337.029-0.059a3.574,3.574,0,0,0,.564-0.6.829.829,0,0,0,.183-0.425,2.113,2.113,0,0,0-0.366-0.981,11.534,11.534,0,0,0-01.1-01.479,14.315,14.315,0,0,0-01.113-01.208q-0.557-0.535-01.069-0.945a3.382,3.382,0,0,1-0.352-0.344,2.268,2.268,0,0,1-0.234-0.315q-0.161-0.293-0.256-0.483a.786.786,0,0,0-0.168-0.249q-0.073-0.088-0.2-0.212t-0.3-0.286a2.154,2.154,0,0,1-0.476-0.894,5.1,5.1,0,0,1-0.168-01.421A3.776,3.776,0,0,1,77.7,8.535a3.1,3.1,0,0,1,.447-0.93,2.15,2.15,0,0,0,.088-0.205q.044-0.117.1-0.264a5.751,5.751,0,0,1,1.143-01.487,15.328,15.328,0,0,1,2.109-01.692q.176-0.088.425-0.234a5.74,5.74,0,0,0,.557-0.381,2.462,2.462,0,0,1,.388-0.264,3.326,3.326,0,0,1,.505-0.22q.4-0.161.894-0.352a10.661,10.661,0,0,1,1.216-0.557,2.378,2.378,0,0,1,.732-0.176.886.886,0,0,1,.725.293,1.305,1.305,0,0,1,.242.85,4.334,4.334,0,0,1-0.1,1,.968.968,0,0,1-0.256.52Q85.2,5.817,84.141,6.513a3.489,3.489,0,0,1-01.479.7.435.435,0,0,1-0.322-0.117.477.477,0,0,1-0.117-0.352q0-0.4.659-0.872t.645-0.725l-0.132-0.088a.411.411,0,0,0-0.168.044,1.231,1.231,0,0,0-0.2.117,12.44,12.44,0,0,0-01.941,1.868,2.488,2.488,0,0,0-0.652,1.443,3.051,3.051,0,0,0,.168.981,5.131,5.131,0,0,0,.491,1.025q.234.366.681.93t1.135,1.355q.952,1.1,1.465,1.7a6.233,6.233,0,0,0,.571.63,5.635,5.635,0,0,1,.5.762,2.729,2.729,0,0,1,.278.732,3.83,3.83,0,0,1,.1.688q.029.41.029,1,0,.337.1.388a.806.806,0,0,0,.337.051.235.235,0,0,0,.139-0.037A.892.892,0,0,0,86.543,18.635ZM87,17.99l1.333-0.879q.073-0.073.176-0.2a2.548,2.548,0,0,0,.234-0.359,1.017,1.017,0,0,1,.271-0.322A2,2,0,0,1,89.4,16a4.715,4.715,0,0,1,.337-0.366q.22-0.22.557-0.513.161-0.088.41-0.256a4.325,4.325,0,0,0,.542-0.447,15.83,15.83,0,0,1,2.336-01.89,3.386,3.386,0,0,1,1.692-0.63.836.836,0,0,1,.564.161.573.573,0,0,1,.183.454,1.264,1.264,0,0,1-0.11.542.985.985,0,0,1-0.344.4q-0.366.264-0.791.586a7.076,7.076,0,0,1-0.571.652,6.642,6.642,0,0,1-0.791.681q-0.146.19-0.249.337-0.073.073-0.278.264a6.429,6.429,0,0,1-0.542.439,3.407,3.407,0,0,1-0.637.835q-0.491.513-01.311,1.23a4.676,4.676,0,0,0-0.366.469q-0.264.366-0.688.967l.1.132a2.488,2.488,0,0,0,.674-0.352,6.843,6.843,0,0,0,.776-0.659l.813-0.74a4.693,4.693,0,0,1,.447-0.374l.205-0.117q.1-0.059.234-0.146a6.177,6.177,0,0,1,1.26-01.194,2,2,0,0,1,1.084-0.388.528.528,0,0,1,.469.242,1.486,1.486,0,0,1,.19.725q-0.029.732-0.029,1.406a1.325,1.325,0,0,0,.256.842.839.839,0,0,0,.71.374.5.5,0,0,0,.256-0.073,1.649,1.649,0,0,0,.256-0.19q.1-0.132.2-0.249t.2-0.234a1.738,1.738,0,0,0,.168-0.1,1.4,1.4,0,0,0,.212-0.176q.205.439.344.769a5.537,5.537,0,0,1,.212.579q-0.337.308-0.667.637a8.435,8.435,0,0,1-0.7.623,3.769,3.769,0,0,1-0.85.505,2.145,2.145,0,0,1-0.82.168,1.92,1.92,0,0,1-01.465-0.542,2.631,2.631,0,0,1-0.6-01.641,1.063,1.063,0,0,0-0.037-0.271.785.785,0,0,0-0.154-0.286q-0.073.073-0.161.154t-0.205.212l-0.476.366q-0.286.22-0.667.527-0.513.527-0.864.864t-0.5.483a6.329,6.329,0,0,1-0.681.5q-0.388.249-0.872.513-0.308.161-0.527.256a.938.938,0,0,1-0.322.1,1.4,1.4,0,0,1-01.04-0.344,1.467,1.467,0,0,1-0.337-01.062,1.755,1.755,0,0,1,.168-0.754,2.491,2.491,0,0,1,.505-0.7,2.119,2.119,0,0,0,.029-0.308.372.372,0,0,0-0.037-0.154q-0.037-0.081-0.1-0.183l-0.2-0.461q-0.11-0.256-0.242-0.549a1.576,1.576,0,0,0,.168-0.227Q86.851,18.239,87,17.99Zm10.8.645q.234-0.308.469-0.645a13.294,13.294,0,0,0,1.75-01.692A6.467,6.467,0,0,0,101,14.782l-0.146-0.7a2.819,2.819,0,0,1,.945-0.864,2.441,2.441,0,0,1,1.223-0.5,1.255,1.255,0,0,1,.842.293q.344.293.667.615.161.1.234.161A2.64,2.64,0,0,1,105.645,15a5.372,5.372,0,0,1,.293,1.89,4.82,4.82,0,0,1-0.454,1.677,4.809,4.809,0,0,0-0.454,1.648.147.147,0,0,0,.051.117.207.207,0,0,0,.139.044.887.887,0,0,0,.454-0.168,3.88,3.88,0,0,0,.571-0.461,7.24,7.24,0,0,1,.938-0.842,2.3,2.3,0,0,0,.4-0.271q.117.293.278.63t.308.718q-0.132.117-0.3.278t-0.4.366q-0.5.366-01.3.886t-01.912,1.194a2.67,2.67,0,0,1-0.674.308,1.842,1.842,0,0,1-0.923-0.183.638.638,0,0,1-0.308-0.593,1.283,1.283,0,0,1,.066-0.374,3.6,3.6,0,0,1,.183-0.461q.088-0.19.19-0.388a3.247,3.247,0,0,0,.176-0.4,14.224,14.224,0,0,0,.491-01.714,6.893,6.893,0,0,0,.168-01.421,2.367,2.367,0,0,0-0.242-01.187.927.927,0,0,0-0.725-0.469,4.319,4.319,0,0,0-0.7.5,6.174,6.174,0,0,0-0.776.806,10.988,10.988,0,0,1-0.762.864,2.627,2.627,0,0,1-0.557.454,2.511,2.511,0,0,1-0.425.5,5.854,5.854,0,0,1-0.776.6l-0.088.176a1.245,1.245,0,0,1-0.19.264q-0.117-0.337-0.264-0.667T97.793,18.635Zm9.771,0q.234-0.308.469-0.645a13.294,13.294,0,0,0,1.75-01.692,6.467,6.467,0,0,0,.989-01.516l-0.146-0.7a2.819,2.819,0,0,1,.945-0.864,2.441,2.441,0,0,1,1.223-0.5,1.255,1.255,0,0,1,.842.293q.344.293.667.615.161.1.234.161A2.64,2.64,0,0,1,115.415,15a5.372,5.372,0,0,1,.293,1.89,4.82,4.82,0,0,1-0.454,1.677,4.809,4.809,0,0,0-0.454,1.648.147.147,0,0,0,.051.117.207.207,0,0,0,.139.044.887.887,0,0,0,.454-0.168,3.88,3.88,0,0,0,.571-0.461,7.24,7.24,0,0,1,.938-0.842,2.3,2.3,0,0,0,.4-0.271q.117.293.278.63t.308.718q-0.132.117-0.3.278t-0.4.366q-0.5.366-01.3.886t-01.912,1.194a2.67,2.67,0,0,1-0.674.308,1.842,1.842,0,0,1-0.923-0.183.638.638,0,0,1-0.308-0.593,1.283,1.283,0,0,1,.066-0.374,3.6,3.6,0,0,1,.183-0.461q.088-0.19.19-0.388a3.247,3.247,0,0,0,.176-0.4,14.224,14.224,0,0,0,.491-01.714,6.893,6.893,0,0,0,.168-01.421,2.367,2.367,0,0,0-0.242-01.187.927.927,0,0,0-0.725-0.469,4.319,4.319,0,0,0-0.7.5,6.174,6.174,0,0,0-0.776.806,10.988,10.988,0,0,1-0.762.864,2.627,2.627,0,0,1-0.557.454,2.511,2.511,0,0,1-0.425.5,5.854,5.854,0,0,1-0.776.6l-0.088.176a1.245,1.245,0,0,1-0.19.264q-0.117-0.337-0.264-0.667T107.563,18.635Zm9.771,0a1.692,1.692,0,0,0,.212-0.271q.11-0.168.256-0.374l1.128-0.776a6.739,6.739,0,0,1,.63-0.637q.425-0.388,1.055-0.945a1.885,1.885,0,0,1,.242-0.374,3.207,3.207,0,0,1,.4-0.417q.205-0.19.41-0.359t.381-0.33q.22-0.22.417-0.439t.4-0.425a2.085,2.085,0,0,1,.483-0.322,1.257,1.257,0,0,1,.542-0.117,1.175,1.175,0,0,1,.491.081.283.283,0,0,1,.183.227q-0.146.337-0.308.674l.088.132q.645-0.249,1.011-0.366a2.151,2.151,0,0,1,.469-0.117,1.953,1.953,0,0,1,1.6.652,3.061,3.061,0,0,1,.535,1.97,3.483,3.483,0,0,1-0.059.586,5.1,5.1,0,0,1-0.19.732,4.056,4.056,0,0,1-0.315.732,1.763,1.763,0,0,1-0.315.425.732.732,0,0,0,.132.271.245.245,0,0,0,.19.081.476.476,0,0,0,.242-0.073,2.374,2.374,0,0,0,.3-0.22q.146.322.286.667t.286.681l-0.513.454q-0.249.22-0.527.425a2.572,2.572,0,0,1-0.637.4,1.541,1.541,0,0,1-0.593.125.917.917,0,0,1-0.557-0.161,1.115,1.115,0,0,1-0.352-0.454,4.758,4.758,0,0,1-0.886.886,5.055,5.055,0,0,1-01.15.667,5.182,5.182,0,0,1-0.667.271,1.831,1.831,0,0,1-0.549.1,1.355,1.355,0,0,0-0.286.059,1.361,1.361,0,0,1-0.344.059,2.049,2.049,0,0,1-01.509-0.7,2.215,2.215,0,0,1-0.674-01.567,3.663,3.663,0,0,1,.161-0.93,4.534,4.534,0,0,0,.161-0.681.228.228,0,0,0-0.066-0.168.247.247,0,0,0-0.183-0.066.984.984,0,0,0-0.352.22q-0.278.22-0.791.63a1.2,1.2,0,0,0-0.1.176,1.245,1.245,0,0,1-0.19.264q-0.117-0.337-0.264-0.681T117.334,18.635Zm7.046-02.681a.53.53,0,0,0-0.212.154,2.062,2.062,0,0,0-0.271.344q-0.205.337-0.469.732a1.256,1.256,0,0,1-0.344.271,1.5,1.5,0,0,1-0.417.139q-0.146.015-0.308.286a3.85,3.85,0,0,0-0.322.784,7.086,7.086,0,0,0-0.234.776,2.522,2.522,0,0,0-0.073.542.836.836,0,0,0,.205.615.858.858,0,0,0,.63.205,2.2,2.2,0,0,0,1.238-0.374,3.928,3.928,0,0,0,1.062-01.121q.234-0.278.439-0.527a.611.611,0,0,0,.19-0.286A4.78,4.78,0,0,0,125.64,18l.264-0.835a5.624,5.624,0,0,0-0.249-0.7.642.642,0,0,0-0.234-0.315,1.241,1.241,0,0,0-0.322-0.1Q124.849,16.013,124.38,15.954Zm3.545,2.681.132-0.117a.735.735,0,0,1,.205-0.381,4.785,4.785,0,0,1,.542-0.513q.22-0.161.461-0.308a4.332,4.332,0,0,0,.461-0.322q.923-0.791,1.787-01.523a7.87,7.87,0,0,1,1-0.754,6.925,6.925,0,0,1,.938-0.505,3.3,3.3,0,0,1,1.15-0.806,3.345,3.345,0,0,1,1.37-0.41.461.461,0,0,1,.33.117.5.5,0,0,1,.154.293v.806a1.243,1.243,0,0,1-0.242.754,2.31,2.31,0,0,1-0.725.608q-0.322.146-0.645.322t-0.645.322a4.933,4.933,0,0,1-0.623.549q-0.505.4-01.37,1.077-0.4.308-0.659.549a2.674,2.674,0,0,0-0.366.388,2.627,2.627,0,0,0-0.227.615,3.357,3.357,0,0,0-0.081.776,1.477,1.477,0,0,0,.1.579.9.9,0,0,0,.308.388,2.032,2.032,0,0,0,.4.205,5.832,5.832,0,0,0,.637.205,3.912,3.912,0,0,1,.579-0.168q.359-0.081.8-0.212.5-0.293,1.018-0.615t1.033-0.659a2.034,2.034,0,0,1,.183-0.1.982.982,0,0,0,.227-0.154,4.257,4.257,0,0,1,.4-0.439q.256-0.249.623-0.571a14.682,14.682,0,0,1,.586,1.348q-0.542.439-01.1.9a4.857,4.857,0,0,1-01.274.754,5.209,5.209,0,0,0-0.4.352,4.834,4.834,0,0,1-01.707,1.106,6.166,6.166,0,0,1-02.219.374,2.553,2.553,0,0,1-0.5-0.044,1.469,1.469,0,0,1-0.366-0.117q-0.439-0.293-0.747-0.513a5.094,5.094,0,0,1-0.542-0.447,1.707,1.707,0,0,1-0.322-0.4,1.339,1.339,0,0,1-0.183-0.5,4.251,4.251,0,0,1-0.051-0.718,1.635,1.635,0,0,1,.073-0.381,1.647,1.647,0,0,0,.073-0.366,6.911,6.911,0,0,0-0.249-0.659Q128.115,18.986,127.925,18.635Zm9.243,0,.132-0.117a.735.735,0,0,1,.205-0.381,4.785,4.785,0,0,1,.542-0.513q.22-0.161.461-0.308a4.332,4.332,0,0,0,.461-0.322q.923-0.791,1.787-01.523a7.87,7.87,0,0,1,1-0.754,6.925,6.925,0,0,1,.938-0.505,3.3,3.3,0,0,1,1.15-0.806,3.345,3.345,0,0,1,1.37-0.41.461.461,0,0,1,.33.117.5.5,0,0,1,.154.293v.806a1.243,1.243,0,0,1-0.242.754,2.31,2.31,0,0,1-0.725.608q-0.322.146-0.645.322t-0.645.322a4.933,4.933,0,0,1-0.623.549q-0.505.4-01.37,1.077-0.4.308-0.659.549a2.674,2.674,0,0,0-0.366.388,2.627,2.627,0,0,0-0.227.615,3.357,3.357,0,0,0-0.081.776,1.477,1.477,0,0,0,.1.579.9.9,0,0,0,.308.388,2.032,2.032,0,0,0,.4.205,5.832,5.832,0,0,0,.637.205,3.912,3.912,0,0,1,.579-0.168q.359-0.081.8-0.212.5-0.293,1.018-0.615t1.033-0.659a2.034,2.034,0,0,1,.183-0.1.982.982,0,0,0,.227-0.154,4.257,4.257,0,0,1,.4-0.439q.256-0.249.623-0.571a14.682,14.682,0,0,1,.586,1.348q-0.542.439-01.1.9a4.857,4.857,0,0,1-01.274.754,5.209,5.209,0,0,0-0.4.352,4.834,4.834,0,0,1-01.707,1.106,6.166,6.166,0,0,1-02.219.374,2.553,2.553,0,0,1-0.5-0.044,1.469,1.469,0,0,1-0.366-0.117q-0.439-0.293-0.747-0.513a5.094,5.094,0,0,1-0.542-0.447,1.707,1.707,0,0,1-0.322-0.4,1.339,1.339,0,0,1-0.183-0.5,4.251,4.251,0,0,1-0.051-0.718,1.635,1.635,0,0,1,.073-0.381,1.647,1.647,0,0,0,.073-0.366,6.911,6.911,0,0,0-0.249-0.659Q137.358,18.986,137.168,18.635Zm9.243,0q.322-0.278.5-0.439a3.7,3.7,0,0,0,.278-0.278,2.92,2.92,0,0,0,.381-0.425.78.78,0,0,0,.161-0.366q.132-0.5.308-01.245t.454-01.729q.132-0.293.286-0.74t.33-01a7.9,7.9,0,0,1,.439-01.333,7.084,7.084,0,0,1,.586-01.084,2.157,2.157,0,0,0,.205-0.33,4.748,4.748,0,0,0,.205-0.461,5.548,5.548,0,0,1,.286-0.549q.183-0.315.417-0.74.6-0.879,1.055-01.509t.747-01.011q.527-0.63,1.062-01.179T155.186,3.2a5.24,5.24,0,0,1,.864-0.623,1.343,1.343,0,0,1,.586-0.2,1.405,1.405,0,0,1,.293.322.743.743,0,0,0,.205-0.029.6.6,0,0,1,.557.308,1.869,1.869,0,0,1,.176.908,1.78,1.78,0,0,1-0.044.344q-0.044.212-0.117.52a.58.58,0,0,0-0.146.264q-0.044.161-0.073.322a2.863,2.863,0,0,1-0.044.352,1.7,1.7,0,0,1-0.073.264q-0.19.352-0.41.857t-0.469,1.179q-0.146.249-0.366.659t-0.527.908q-0.146.278-0.374.7t-0.579.959a1.743,1.743,0,0,1-0.3.447q-0.212.242-0.505.564a4.489,4.489,0,0,1-0.491.806q-0.4.571-01.121,1.479-0.352.454-0.908,1.128t-01.289,1.6q-0.278,1.1-0.417,1.956a9.452,9.452,0,0,0-0.139,1.487,1.419,1.419,0,0,0,.037.374q.037.125.139.125a1.7,1.7,0,0,1,.212-0.234,3.587,3.587,0,0,0,.286-0.308,3.716,3.716,0,0,0,.652-0.923q.374-0.674.857-01.743a10.945,10.945,0,0,1,.762-01.487,1.754,1.754,0,0,1,.557-0.623l.513-0.22q.146-0.059.264-0.1a.574.574,0,0,1,.19-0.044.443.443,0,0,1,.352.234,2,2,0,0,1,.264.645q.19.747.308,1.15t.132.476a1.569,1.569,0,0,0,.461.645,1.049,1.049,0,0,0,.652.205q.454-0.073,1.069-0.205.117.293.271.63t.315.718q-0.352.234-0.71.454t-0.71.439a2.021,2.021,0,0,1-0.674.2,7,7,0,0,1-01.025.066,1.528,1.528,0,0,1-01.384-0.842q-0.491-0.842-0.593-0.828h-0.088q-0.234.293-0.491.6t-0.505.645a6.48,6.48,0,0,1-0.454.776q-0.293.439-0.7.967a6.186,6.186,0,0,1-0.85.879,1.088,1.088,0,0,1-0.63.293,2.443,2.443,0,0,1-0.872-0.125.548.548,0,0,1-0.374-0.374q-0.176-0.82-0.271-01.428a6.846,6.846,0,0,1-0.1-01.033,1.672,1.672,0,0,1,.015-0.234q.015-0.1.029-0.19.044-0.19.1-0.41a.149.149,0,0,0-0.037-0.11.172.172,0,0,0-0.125-0.037,1.271,1.271,0,0,1-0.117.132,1.366,1.366,0,0,1-0.205.161,5.435,5.435,0,0,0-0.205-0.527Q146.646,19.118,146.411,18.635ZM155.933,5.1q-0.161,0-0.645.579a20.2,20.2,0,0,0-01.23,1.707q-0.425.63-0.835,1.252l-0.806,1.223a1.235,1.235,0,0,0-0.256.352.869.869,0,0,0-0.081.366q-0.293.82-0.571,1.538-0.264.776-0.432,1.2l-0.2.5.073.073a3.289,3.289,0,0,0,.5-0.557q.293-0.337.71-0.872t.945-01.252A12.132,12.132,0,0,0,154.189,9.5q.557-01.033,1.2-02.38.366-0.732.549-01.172a1.952,1.952,0,0,0,.183-0.615.344.344,0,0,0-0.037-0.168A.161.161,0,0,0,155.933,5.1Zm1.23,13.535.088-0.1.044-0.146a9.751,9.751,0,0,1,1.392-01.414,9,9,0,0,0,1.377-01.414.925.925,0,0,1,.337-0.337.8.8,0,0,1,.381-0.1,1.427,1.427,0,0,1,.864.256,1.254,1.254,0,0,1,.469.769q.1.454.19.916t.146.93q.1.293.249.886a2.64,2.64,0,0,0,.22.681.443.443,0,0,0,.22.212.893.893,0,0,0,.366.066,1.67,1.67,0,0,0,.542-0.1,1.928,1.928,0,0,0,.571-0.33q.22-0.19.461-0.388l.476-0.388.586,1.348a6.65,6.65,0,0,1-0.623.535q-0.388.3-0.93.7a7.5,7.5,0,0,1-01.025.652,1.631,1.631,0,0,1-0.645.212,3.163,3.163,0,0,1-01.729-0.308,4.139,4.139,0,0,1-0.879-01.714,2.059,2.059,0,0,0-0.176-0.278q-0.117-0.161-0.264-0.381a3.434,3.434,0,0,0-0.308-0.505q-0.132-0.168-0.22-0.168a1.163,1.163,0,0,0-0.63.315,8.791,8.791,0,0,0-0.967.945q-0.073-0.19-0.183-0.454t-0.227-0.615a.81.81,0,0,0-0.073-0.161A.4.4,0,0,0,157.163,18.635Zm6.123-011.558a.8.8,0,0,1,.535.146.533.533,0,0,1,.168.425q-0.088.41-0.146.688-0.146.527-0.256.864t-0.168.483a1.823,1.823,0,0,1-0.359.564,2.473,2.473,0,0,1-0.549.432,3.252,3.252,0,0,1-0.564.33.7.7,0,0,1-0.315.081q-0.249-0.029-0.476-0.051t-0.447-0.022a.7.7,0,0,1-0.3-0.4,2.312,2.312,0,0,1-0.11-0.791,1.961,1.961,0,0,1,.535-01.106,1.644,1.644,0,0,1,.945-0.71q.249-0.308.586-0.7a1.257,1.257,0,0,1,.381-0.168A2.009,2.009,0,0,1,163.286,7.077Z" transform="translate(-01.008 -01.188)" fill="#707070"/>
  
</svg>
