<svg xmlns="http://www.w3.org/2000/svg" width="165.135" height="22.793" viewBox="0 0 165.135 22.793">
  <path 
  id="Path_7" 
  data-name="Path 7" 
  d="M10.107, 8.732q -0.059 -0.249 -0.117 -0.439.073-.425.161-.828t.146-.828a3.935,3.935,0,0,1,.359-1.011,1.032,1.032,0,0,1,.461-.483l.938-.4q.161-.059.454-.146a.245.245,0,0,1,.234.146.976.976,0,0,1,.073.425q0,.1-.073.586t-.205,1.362q-.029.205-.051.425t-.066.439a.773.773,0,0,1-.1.344q-.1.2-.264.461a3.578,3.578,0,0,1-.315,1.421q-.388,1.128-1.208,3.047-.688,1.6-1.216,2.8t-.923,1.978q-.205.41-.469.886t-.542.989q.132.308.249.557a.841.841,0,0,1-.059.293q-.205.234-.513.6t-.718.82q-.278.132-.6.293-.22.293-.366.513a2.851,2.851,0,0,1-.52.242,1.421,1.421,0,0,1-.447.081.912.912,0,0,1-.681-.352,1.076,1.076,0,0,1-.315-.718,1.024,1.024,0,0,1,.337-.615,2.269,2.269,0,0,0,.381-.483l-.044-.146L3.94,20.8a4.04,4.04,0,0,0-.161-.667,4.051,4.051,0,0,0-.249-.579,5.19,5.19,0,0,1-.469-1.077q-.205-.637-.381-1.458-.073-.381-.11-.608a2.409,2.409,0,0,1-.037-.3,2.235,2.235,0,0,1-.132-.293q-.073-.19-.161-.439-.073-.483-.183-1.216t-.227-1.714a1.283,1.283,0,0,0-.037-.278q-.037-.161-.11-.4a2.035,2.035,0,0,1-.117-.381,1.65,1.65,0,0,1-.029-.293q.015-.425.015-.835a.865.865,0,0,1-.059-.381l.117-.571a1.819,1.819,0,0,1-.242-.5,2.234,2.234,0,0,1-.1-.688.874.874,0,0,1,.044-.278,1.9,1.9,0,0,1,.1-.249A3.984,3.984,0,0,1,1.3,7.128a2.908,2.908,0,0,1-.044-.52,1.684,1.684,0,0,1-.212-.432A.666.666,0,0,1,1.025,5.8l.088-.586q-.059-.22-.1-.366.161-.879.278-1.406a5.688,5.688,0,0,1,.176-.674,2.054,2.054,0,0,1,.623-.828,2.324,2.324,0,0,1,1-.432q.205-.146.359-.234a.582.582,0,0,1,.286-.088.4.4,0,0,1,.3.154,1.157,1.157,0,0,1,.227.447,2.561,2.561,0,0,1,.1.483,2.515,2.515,0,0,1,.007.425q-.059.542-.117,1.245T4.16,5.51a2.781,2.781,0,0,1-.132.33.946.946,0,0,0-.1.359,1.772,1.772,0,0,0,.1.469,1.772,1.772,0,0,1,.1.469,3.119,3.119,0,0,1-.029.322q-.029.234-.088.894.059.337.146.7a5.033,5.033,0,0,1-.044.527,5.043,5.043,0,0,0-.044.542.318.318,0,0,0,.029.154,2.771,2.771,0,0,1,.117.4q.015.322.066.74t.125.989l.183,1.245q.11.747.212,1.729l.015.483a.64.64,0,0,0,.059.242,1.223,1.223,0,0,0,.176.286q.088.4.19.85t.205.938a.533.533,0,0,0,.1.249.209.209,0,0,0,.161.088,3.093,3.093,0,0,0,.513-.659,3.413,3.413,0,0,0,.344-.593q.212-.432.505-1.165a3.709,3.709,0,0,1,.22-.454q.146-.264.337-.6a8.258,8.258,0,0,0,.527-1.069q.337-.776.82-2.051.4-1.055.667-1.787t.388-1.128Zm2.446,9.258,1.333-.879q.073-.073.176-.2a2.548,2.548,0,0,0,.234-.359,1.017,1.017,0,0,1,.271-.322A2,2,0,0,1,14.956,16a4.715,4.715,0,0,1,.337-.366q.22-.22.557-.513.161-.088.41-.256a4.325,4.325,0,0,0,.542-.447,15.83,15.83,0,0,1,2.336-1.89,3.386,3.386,0,0,1,1.692-.63.836.836,0,0,1,.564.161.573.573,0,0,1,.183.454,1.264,1.264,0,0,1-.11.542.985.985,0,0,1-.344.4q-.366.264-.791.586a7.076,7.076,0,0,1-.571.652,6.642,6.642,0,0,1-.791.681q-.146.19-.249.337-.073.073-.278.264a6.429,6.429,0,0,1-.542.439,3.407,3.407,0,0,1-.637.835q-.491.513-1.311,1.23a4.676,4.676,0,0,0-.366.469q-.264.366-.688.967l.1.132a2.488,2.488,0,0,0,.674-.352,6.843,6.843,0,0,0,.776-.659l.813-.74a4.693,4.693,0,0,1,.447-.374l.205-.117q.1-.059.234-.146a6.177,6.177,0,0,1,1.26-1.194,2,2,0,0,1,1.084-.388.528.528,0,0,1,.469.242,1.486,1.486,0,0,1,.19.725q-.029.732-.029,1.406a1.325,1.325,0,0,0,.256.842.839.839,0,0,0,.71.374.5.5,0,0,0,.256-.073,1.649,1.649,0,0,0,.256-.19q.1-.132.2-.249t.2-.234a1.738,1.738,0,0,0,.168-.1,1.4,1.4,0,0,0,.212-.176q.205.439.344.769a5.537,5.537,0,0,1,.212.579q-.337.308-.667.637a8.435,8.435,0,0,1-.7.623,3.769,3.769,0,0,1-.85.505,2.145,2.145,0,0,1-.82.168,1.92,1.92,0,0,1-1.465-.542,2.631,2.631,0,0,1-.6-1.641,1.063,1.063,0,0,0-.037-.271.785.785,0,0,0-.154-.286q-.073.073-.161.154t-.205.212l-.476.366q-.286.22-.667.527-.513.527-.864.864t-.5.483a6.329,6.329,0,0,1-.681.5q-.388.249-.872.513-.308.161-.527.256a.938.938,0,0,1-.322.1,1.4,1.4,0,0,1-1.04-.344A1.467,1.467,0,0,1,12,21.74a1.755,1.755,0,0,1,.168-.754,2.491,2.491,0,0,1,.505-.7,2.119,2.119,0,0,0,.029-.308.372.372,0,0,0-.037-.154q-.037-.081-.1-.183l-.2-.461q-.11-.256-.242-.549a1.576,1.576,0,0,0,.168-.227Q12.407,18.239,12.554,17.99Zm10.8.645a2.537,2.537,0,0,0,.264-.359,3.514,3.514,0,0,1,.352-.461l.967-.85A.16.16,0,0,0,25,16.848q.007-.073.007-.205a1.92,1.92,0,0,0-.044-.308,7.906,7.906,0,0,1,.132-1.128,3.564,3.564,0,0,1,.234-.952l-.088-.278q.19-.981.535-2.146T26.558,9.3a5.006,5.006,0,0,0,.308-.593l.366-.813a12.329,12.329,0,0,1,.659-1.6q.41-.835.923-1.714a11.047,11.047,0,0,1,1.223-1.743A1.441,1.441,0,0,1,31,2.258a1.6,1.6,0,0,1,1.165.33,1.816,1.816,0,0,1,.315,1.238,4.98,4.98,0,0,1-.081.725,5,5,0,0,0-.081.74,2.291,2.291,0,0,1-.161.7,2.514,2.514,0,0,0-.161.835.723.723,0,0,1-.073.234l.015.205q-.059.205-.176.5t-.308.7q-.1.366-.264.85t-.381,1.055q-.088.146-.227.359t-.3.476a2.881,2.881,0,0,1-.146.439q-.1.249-.278.586a2.888,2.888,0,0,1-.234.381q-.146.205-.352.527a4.068,4.068,0,0,0-.19.366q-.1.22-.234.5-.161.249-.425.615t-.6.864q-.454.806-.937,1.538a3.452,3.452,0,0,0,.564,2.146,2.011,2.011,0,0,0,1.692.725,2.706,2.706,0,0,0,.439-.1q.366-.1,1.011-.322a4.581,4.581,0,0,0,.454-.33q.264-.212.6-.505l.571,1.348q-.381.337-.762.688t-.776.688a3.656,3.656,0,0,1-.923.579,2.362,2.362,0,0,1-.923.2q-.234,0-.718-.051t-.732-.051a1.671,1.671,0,0,1-1.355-.659,4.241,4.241,0,0,1-.754-1.978,1.016,1.016,0,0,0-.081-.234A.964.964,0,0,0,25,18.928q-.19.19-.447.454t-.623.6Zm6.987-11.5-.1-.059A7.387,7.387,0,0,0,29,8.571a2.668,2.668,0,0,0-.417,1.362,1.116,1.116,0,0,1-.1.344q-.1.242-.286.623-.234.454-.483,1-.278.82-.425,1.333a3.1,3.1,0,0,0-.146.732l.088.117q.132-.015.322-.264a5.1,5.1,0,0,0,.439-.732,5.119,5.119,0,0,1,.337-.615q.22-.352.5-.835a9.369,9.369,0,0,0,.747-1.655,10.1,10.1,0,0,0,.557-1.7,3.3,3.3,0,0,1,.081-.579Q30.278,7.414,30.337,7.136Zm1.274,11.5a3.784,3.784,0,0,1,.454-.623,5.494,5.494,0,0,1,.7-.652q.044-.293.088-.579a5.662,5.662,0,0,0,.059-.579,4.335,4.335,0,0,1,.139-.483q.1-.278.212-.6t.359-.806a11.555,11.555,0,0,1,.593-1.084q.308-.337.645-.74t.674-.813a3.215,3.215,0,0,1,.352-.249,4.456,4.456,0,0,0,.381-.264,3.307,3.307,0,0,1,.4-.1,2.469,2.469,0,0,1,.483-.044,1.979,1.979,0,0,1,.593.073.791.791,0,0,1,.374.249,1.264,1.264,0,0,1,.2.352,4.677,4.677,0,0,1,.183.571q.044.293.1.645,0-.088-.051.073t-.154.513l-.132.469a5.15,5.15,0,0,1-.923,1.626A21.5,21.5,0,0,1,35.405,17.7a.914.914,0,0,0-.176.256.757.757,0,0,0-.073.33,1.264,1.264,0,0,0,.11.542.765.765,0,0,0,.315.352,1.412,1.412,0,0,0,.374.176,5.109,5.109,0,0,0,.608.161,4.692,4.692,0,0,0,1.04-.19,4.38,4.38,0,0,0,.835-.352q.073-.044.234-.125a1.743,1.743,0,0,0,.322-.212q.19.425.337.762t.234.586a8.864,8.864,0,0,1-1.516,1.238,2.438,2.438,0,0,1-1.252.417,1.679,1.679,0,0,1-.535.212,3.351,3.351,0,0,1-.71.066,2.652,2.652,0,0,1-.959-.161,1.791,1.791,0,0,1-.7-.469,1.734,1.734,0,0,1-.293-.432q-.146-.286-.308-.681a2.179,2.179,0,0,0-.249-.476.332.332,0,0,0-.264-.154.458.458,0,0,0-.264.11,1.887,1.887,0,0,0-.322.33,3.619,3.619,0,0,0-.205-.542Q31.846,19.118,31.611,18.635ZM36.3,13.874q-.322,0-.864.842a2.767,2.767,0,0,0-.542,1.238.172.172,0,0,0,.037.125.226.226,0,0,0,.154.037.3.3,0,0,0,.264-.168l.19-.315q.161-.146.315-.315l.3-.33a1.613,1.613,0,0,0,.264-.41,1.034,1.034,0,0,0,.088-.41.391.391,0,0,0-.051-.212A.17.17,0,0,0,36.3,13.874Zm2.681,4.761.088-.1a1.23,1.23,0,0,1,.256-.439,2.491,2.491,0,0,1,.564-.469q.483-.308.754-.5a1.483,1.483,0,0,0,.33-.278,1.524,1.524,0,0,0,.176-.249q.161-.117.4-.322t.527-.5a1.037,1.037,0,0,0,.22-.234,3.986,3.986,0,0,0,.234-.366q.19-.132.432-.337t.564-.527q.366-.4.828-.872t1.033-.989a2.825,2.825,0,0,1,.359-.139,1.129,1.129,0,0,1,.33-.051,1.382,1.382,0,0,1,.989.315,1.187,1.187,0,0,1,.33.9,3.674,3.674,0,0,1-.051.483q-.051.337-.11.85-.205,1.479-.293,1.8t-.615,2.021a7.192,7.192,0,0,0-.242.688q-.125.41-.3,1a.317.317,0,0,0,.146.117.832.832,0,0,0,.366-.2q.264-.2.7-.593.513-.469.806-.718a4.32,4.32,0,0,1,.366-.293l.322.725q.146.33.249.623a2.07,2.07,0,0,0-.344.264,2.589,2.589,0,0,0-.286.322q-.308.205-.71.469t-.886.571q-.22.22-.593.535l-.842.71-.278.059a2.265,2.265,0,0,1-.388.425,1.356,1.356,0,0,1-.33.205q-.234.088-.469.168l-.5.168a.355.355,0,0,1-.234-.19.747.747,0,0,1-.059-.381,3.826,3.826,0,0,1-.352-.908,4.59,4.59,0,0,1-.132-1.143,2.26,2.26,0,0,1,.015-.249q.015-.132.029-.234a2.96,2.96,0,0,1-.1-.454.909.909,0,0,1,.337-.725,1.146,1.146,0,0,1,.762-.286.325.325,0,0,1,.315.227q.1.227.2.227t.212-.4a9.557,9.557,0,0,0,.212-1.179q.1-.674.132-1.172t.029-.762a.433.433,0,0,0-.081-.286.338.338,0,0,0-.271-.1,4.386,4.386,0,0,0-1.23.879q-1.04.879-2.9,2.622a2.506,2.506,0,0,1-.168.249q-.11.146-.256.366a3.619,3.619,0,0,0-.205-.542Q39.214,19.118,38.979,18.635Zm9.17,0,.132-.117a.735.735,0,0,1,.205-.381,4.785,4.785,0,0,1,.542-.513q.22-.161.461-.308a4.332,4.332,0,0,0,.461-.322q.923-.791,1.787-1.523a7.87,7.87,0,0,1,1-.754,6.925,6.925,0,0,1,.938-.505,3.3,3.3,0,0,1,1.15-.806,3.345,3.345,0,0,1,1.37-.41.461.461,0,0,1,.33.117.5.5,0,0,1,.154.293v.806a1.243,1.243,0,0,1-.242.754,2.31,2.31,0,0,1-.725.608q-.322.146-.645.322t-.645.322a4.933,4.933,0,0,1-.623.549q-.505.4-1.37,1.077-.4.308-.659.549a2.674,2.674,0,0,0-.366.388,2.627,2.627,0,0,0-.227.615,3.357,3.357,0,0,0-.081.776,1.477,1.477,0,0,0,.1.579.9.9,0,0,0,.308.388,2.032,2.032,0,0,0,.4.205,5.832,5.832,0,0,0,.637.205,3.912,3.912,0,0,1,.579-.168q.359-.081.8-.212.5-.293,1.018-.615t1.033-.659a2.034,2.034,0,0,1,.183-.1.982.982,0,0,0,.227-.154,4.257,4.257,0,0,1,.4-.439q.256-.249.623-.571a14.682,14.682,0,0,1,.586,1.348q-.542.439-1.1.9a4.857,4.857,0,0,1-1.274.754,5.209,5.209,0,0,0-.4.352A4.834,4.834,0,0,1,53.518,23.1a6.166,6.166,0,0,1-2.219.374,2.553,2.553,0,0,1-.5-.044,1.469,1.469,0,0,1-.366-.117q-.439-.293-.747-.513a5.094,5.094,0,0,1-.542-.447,1.707,1.707,0,0,1-.322-.4,1.339,1.339,0,0,1-.183-.5,4.251,4.251,0,0,1-.051-.718,1.635,1.635,0,0,1,.073-.381,1.647,1.647,0,0,0,.073-.366,6.911,6.911,0,0,0-.249-.659Q48.34,18.986,48.149,18.635Zm9.712-.645,1.333-.879q.073-.073.176-.2a2.548,2.548,0,0,0,.234-.359,1.017,1.017,0,0,1,.271-.322A2,2,0,0,1,60.264,16a4.715,4.715,0,0,1,.337-.366q.22-.22.557-.513.161-.088.41-.256a4.325,4.325,0,0,0,.542-.447,15.83,15.83,0,0,1,2.336-1.89,3.386,3.386,0,0,1,1.692-.63.836.836,0,0,1,.564.161.573.573,0,0,1,.183.454,1.264,1.264,0,0,1-.11.542.985.985,0,0,1-.344.4q-.366.264-.791.586a7.076,7.076,0,0,1-.571.652,6.642,6.642,0,0,1-.791.681q-.146.19-.249.337-.073.073-.278.264a6.429,6.429,0,0,1-.542.439,3.407,3.407,0,0,1-.637.835q-.491.513-1.311,1.23a4.676,4.676,0,0,0-.366.469q-.264.366-.688.967l.1.132a2.488,2.488,0,0,0,.674-.352,6.843,6.843,0,0,0,.776-.659l.813-.74a4.693,4.693,0,0,1,.447-.374l.205-.117q.1-.059.234-.146a6.177,6.177,0,0,1,1.26-1.194,2,2,0,0,1,1.084-.388.528.528,0,0,1,.469.242,1.486,1.486,0,0,1,.19.725q-.029.732-.029,1.406a1.325,1.325,0,0,0,.256.842.839.839,0,0,0,.71.374.5.5,0,0,0,.256-.073,1.649,1.649,0,0,0,.256-.19q.1-.132.2-.249t.2-.234a1.738,1.738,0,0,0,.168-.1,1.4,1.4,0,0,0,.212-.176q.205.439.344.769a5.537,5.537,0,0,1,.212.579q-.337.308-.667.637a8.435,8.435,0,0,1-.7.623,3.769,3.769,0,0,1-.85.505,2.145,2.145,0,0,1-.82.168,1.92,1.92,0,0,1-1.465-.542,2.631,2.631,0,0,1-.6-1.641,1.063,1.063,0,0,0-.037-.271.785.785,0,0,0-.154-.286q-.073.073-.161.154t-.205.212l-.476.366q-.286.22-.667.527-.513.527-.864.864t-.5.483a6.329,6.329,0,0,1-.681.5q-.388.249-.872.513-.308.161-.527.256a.938.938,0,0,1-.322.1,1.4,1.4,0,0,1-1.04-.344A1.467,1.467,0,0,1,57.3,21.74a1.755,1.755,0,0,1,.168-.754,2.491,2.491,0,0,1,.505-.7,2.119,2.119,0,0,0,.029-.308.372.372,0,0,0-.037-.154q-.037-.081-.1-.183l-.2-.461q-.11-.256-.242-.549a1.576,1.576,0,0,0,.168-.227Q57.715,18.239,57.861,17.99Zm28.682.645.586,1.348a2.266,2.266,0,0,1-.9.278q-.7.117-1.809.205a16.946,16.946,0,0,1-2.571,2.095,10.363,10.363,0,0,1-2.542,1.23q-.293.088-.674.19a1.594,1.594,0,0,1-.513-.1,4.5,4.5,0,0,1-.615-.271,2.683,2.683,0,0,1-.542-.425.623.623,0,0,1-.19-.425,1.189,1.189,0,0,1,.425-.85,4.348,4.348,0,0,1,1.245-.776q1.641-.762,3.237-1.538a.487.487,0,0,1,.337.1.315.315,0,0,1,.1.242q0,.4-.564.667t-.564.388q.1.146.176.146.19,0,.842-.571t.637-.718l-.073-.337.029-.059a3.574,3.574,0,0,0,.564-.6.829.829,0,0,0,.183-.425,2.113,2.113,0,0,0-.366-.981,11.534,11.534,0,0,0-1.1-1.479,14.315,14.315,0,0,0-1.113-1.208q-.557-.535-1.069-.945a3.382,3.382,0,0,1-.352-.344,2.268,2.268,0,0,1-.234-.315q-.161-.293-.256-.483a.786.786,0,0,0-.168-.249q-.073-.088-.2-.212t-.3-.286a2.154,2.154,0,0,1-.476-.894,5.1,5.1,0,0,1-.168-1.421A3.776,3.776,0,0,1,77.7,8.535a3.1,3.1,0,0,1,.447-.93,2.15,2.15,0,0,0,.088-.205q.044-.117.1-.264a5.751,5.751,0,0,1,1.143-1.487,15.328,15.328,0,0,1,2.109-1.692q.176-.088.425-.234a5.74,5.74,0,0,0,.557-.381,2.462,2.462,0,0,1,.388-.264,3.326,3.326,0,0,1,.505-.22q.4-.161.894-.352a10.661,10.661,0,0,1,1.216-.557,2.378,2.378,0,0,1,.732-.176.886.886,0,0,1,.725.293,1.305,1.305,0,0,1,.242.85,4.334,4.334,0,0,1-.1,1,.968.968,0,0,1-.256.52Q85.2,5.817,84.141,6.513a3.489,3.489,0,0,1-1.479.7.435.435,0,0,1-.322-.117.477.477,0,0,1-.117-.352q0-.4.659-.872t.645-.725l-.132-.088a.411.411,0,0,0-.168.044,1.231,1.231,0,0,0-.2.117,12.44,12.44,0,0,0-1.941,1.868,2.488,2.488,0,0,0-.652,1.443,3.051,3.051,0,0,0,.168.981,5.131,5.131,0,0,0,.491,1.025q.234.366.681.93t1.135,1.355q.952,1.1,1.465,1.7a6.233,6.233,0,0,0,.571.63,5.635,5.635,0,0,1,.5.762,2.729,2.729,0,0,1,.278.732,3.83,3.83,0,0,1,.1.688q.029.41.029,1,0,.337.1.388a.806.806,0,0,0,.337.051.235.235,0,0,0,.139-.037A.892.892,0,0,0,86.543,18.635ZM87,17.99l1.333-.879q.073-.073.176-.2a2.548,2.548,0,0,0,.234-.359,1.017,1.017,0,0,1,.271-.322A2,2,0,0,1,89.4,16a4.715,4.715,0,0,1,.337-.366q.22-.22.557-.513.161-.088.41-.256a4.325,4.325,0,0,0,.542-.447,15.83,15.83,0,0,1,2.336-1.89,3.386,3.386,0,0,1,1.692-.63.836.836,0,0,1,.564.161.573.573,0,0,1,.183.454,1.264,1.264,0,0,1-.11.542.985.985,0,0,1-.344.4q-.366.264-.791.586a7.076,7.076,0,0,1-.571.652,6.642,6.642,0,0,1-.791.681q-.146.19-.249.337-.073.073-.278.264a6.429,6.429,0,0,1-.542.439,3.407,3.407,0,0,1-.637.835q-.491.513-1.311,1.23a4.676,4.676,0,0,0-.366.469q-.264.366-.688.967l.1.132a2.488,2.488,0,0,0,.674-.352,6.843,6.843,0,0,0,.776-.659l.813-.74a4.693,4.693,0,0,1,.447-.374l.205-.117q.1-.059.234-.146a6.177,6.177,0,0,1,1.26-1.194,2,2,0,0,1,1.084-.388.528.528,0,0,1,.469.242,1.486,1.486,0,0,1,.19.725q-.029.732-.029,1.406a1.325,1.325,0,0,0,.256.842.839.839,0,0,0,.71.374.5.5,0,0,0,.256-.073,1.649,1.649,0,0,0,.256-.19q.1-.132.2-.249t.2-.234a1.738,1.738,0,0,0,.168-.1,1.4,1.4,0,0,0,.212-.176q.205.439.344.769a5.537,5.537,0,0,1,.212.579q-.337.308-.667.637a8.435,8.435,0,0,1-.7.623,3.769,3.769,0,0,1-.85.505,2.145,2.145,0,0,1-.82.168,1.92,1.92,0,0,1-1.465-.542,2.631,2.631,0,0,1-.6-1.641,1.063,1.063,0,0,0-.037-.271.785.785,0,0,0-.154-.286q-.073.073-.161.154t-.205.212l-.476.366q-.286.22-.667.527-.513.527-.864.864t-.5.483a6.329,6.329,0,0,1-.681.5q-.388.249-.872.513-.308.161-.527.256a.938.938,0,0,1-.322.1,1.4,1.4,0,0,1-1.04-.344,1.467,1.467,0,0,1-.337-1.062,1.755,1.755,0,0,1,.168-.754,2.491,2.491,0,0,1,.505-.7,2.119,2.119,0,0,0,.029-.308.372.372,0,0,0-.037-.154q-.037-.081-.1-.183l-.2-.461q-.11-.256-.242-.549a1.576,1.576,0,0,0,.168-.227Q86.851,18.239,87,17.99Zm10.8.645q.234-.308.469-.645a13.294,13.294,0,0,0,1.75-1.692A6.467,6.467,0,0,0,101,14.782l-.146-.7a2.819,2.819,0,0,1,.945-.864,2.441,2.441,0,0,1,1.223-.5,1.255,1.255,0,0,1,.842.293q.344.293.667.615.161.1.234.161A2.64,2.64,0,0,1,105.645,15a5.372,5.372,0,0,1,.293,1.89,4.82,4.82,0,0,1-.454,1.677,4.809,4.809,0,0,0-.454,1.648.147.147,0,0,0,.051.117.207.207,0,0,0,.139.044.887.887,0,0,0,.454-.168,3.88,3.88,0,0,0,.571-.461,7.24,7.24,0,0,1,.938-.842,2.3,2.3,0,0,0,.4-.271q.117.293.278.63t.308.718q-.132.117-.3.278t-.4.366q-.5.366-1.3.886t-1.912,1.194a2.67,2.67,0,0,1-.674.308,1.842,1.842,0,0,1-.923-.183.638.638,0,0,1-.308-.593,1.283,1.283,0,0,1,.066-.374,3.6,3.6,0,0,1,.183-.461q.088-.19.19-.388a3.247,3.247,0,0,0,.176-.4,14.224,14.224,0,0,0,.491-1.714,6.893,6.893,0,0,0,.168-1.421,2.367,2.367,0,0,0-.242-1.187.927.927,0,0,0-.725-.469,4.319,4.319,0,0,0-.7.5,6.174,6.174,0,0,0-.776.806,10.988,10.988,0,0,1-.762.864,2.627,2.627,0,0,1-.557.454,2.511,2.511,0,0,1-.425.5,5.854,5.854,0,0,1-.776.6l-.088.176a1.245,1.245,0,0,1-.19.264q-.117-.337-.264-.667T97.793,18.635Zm9.771,0q.234-.308.469-.645a13.294,13.294,0,0,0,1.75-1.692,6.467,6.467,0,0,0,.989-1.516l-.146-.7a2.819,2.819,0,0,1,.945-.864,2.441,2.441,0,0,1,1.223-.5,1.255,1.255,0,0,1,.842.293q.344.293.667.615.161.1.234.161A2.64,2.64,0,0,1,115.415,15a5.372,5.372,0,0,1,.293,1.89,4.82,4.82,0,0,1-.454,1.677,4.809,4.809,0,0,0-.454,1.648.147.147,0,0,0,.051.117.207.207,0,0,0,.139.044.887.887,0,0,0,.454-.168,3.88,3.88,0,0,0,.571-.461,7.24,7.24,0,0,1,.938-.842,2.3,2.3,0,0,0,.4-.271q.117.293.278.63t.308.718q-.132.117-.3.278t-.4.366q-.5.366-1.3.886t-1.912,1.194a2.67,2.67,0,0,1-.674.308,1.842,1.842,0,0,1-.923-.183.638.638,0,0,1-.308-.593,1.283,1.283,0,0,1,.066-.374,3.6,3.6,0,0,1,.183-.461q.088-.19.19-.388a3.247,3.247,0,0,0,.176-.4,14.224,14.224,0,0,0,.491-1.714,6.893,6.893,0,0,0,.168-1.421,2.367,2.367,0,0,0-.242-1.187.927.927,0,0,0-.725-.469,4.319,4.319,0,0,0-.7.5,6.174,6.174,0,0,0-.776.806,10.988,10.988,0,0,1-.762.864,2.627,2.627,0,0,1-.557.454,2.511,2.511,0,0,1-.425.5,5.854,5.854,0,0,1-.776.6l-.088.176a1.245,1.245,0,0,1-.19.264q-.117-.337-.264-.667T107.563,18.635Zm9.771,0a1.692,1.692,0,0,0,.212-.271q.11-.168.256-.374l1.128-.776a6.739,6.739,0,0,1,.63-.637q.425-.388,1.055-.945a1.885,1.885,0,0,1,.242-.374,3.207,3.207,0,0,1,.4-.417q.205-.19.41-.359t.381-.33q.22-.22.417-.439t.4-.425a2.085,2.085,0,0,1,.483-.322,1.257,1.257,0,0,1,.542-.117,1.175,1.175,0,0,1,.491.081.283.283,0,0,1,.183.227q-.146.337-.308.674l.088.132q.645-.249,1.011-.366a2.151,2.151,0,0,1,.469-.117,1.953,1.953,0,0,1,1.6.652,3.061,3.061,0,0,1,.535,1.97,3.483,3.483,0,0,1-.059.586,5.1,5.1,0,0,1-.19.732,4.056,4.056,0,0,1-.315.732,1.763,1.763,0,0,1-.315.425.732.732,0,0,0,.132.271.245.245,0,0,0,.19.081.476.476,0,0,0,.242-.073,2.374,2.374,0,0,0,.3-.22q.146.322.286.667t.286.681l-.513.454q-.249.22-.527.425a2.572,2.572,0,0,1-.637.4,1.541,1.541,0,0,1-.593.125.917.917,0,0,1-.557-.161,1.115,1.115,0,0,1-.352-.454,4.758,4.758,0,0,1-.886.886,5.055,5.055,0,0,1-1.15.667,5.182,5.182,0,0,1-.667.271,1.831,1.831,0,0,1-.549.1,1.355,1.355,0,0,0-.286.059,1.361,1.361,0,0,1-.344.059,2.049,2.049,0,0,1-1.509-.7,2.215,2.215,0,0,1-.674-1.567,3.663,3.663,0,0,1,.161-.93,4.534,4.534,0,0,0,.161-.681.228.228,0,0,0-.066-.168.247.247,0,0,0-.183-.066.984.984,0,0,0-.352.22q-.278.22-.791.63a1.2,1.2,0,0,0-.1.176,1.245,1.245,0,0,1-.19.264q-.117-.337-.264-.681T117.334,18.635Zm7.046-2.681a.53.53,0,0,0-.212.154,2.062,2.062,0,0,0-.271.344q-.205.337-.469.732a1.256,1.256,0,0,1-.344.271,1.5,1.5,0,0,1-.417.139q-.146.015-.308.286a3.85,3.85,0,0,0-.322.784,7.086,7.086,0,0,0-.234.776,2.522,2.522,0,0,0-.073.542.836.836,0,0,0,.205.615.858.858,0,0,0,.63.205,2.2,2.2,0,0,0,1.238-.374,3.928,3.928,0,0,0,1.062-1.121q.234-.278.439-.527a.611.611,0,0,0,.19-.286A4.78,4.78,0,0,0,125.64,18l.264-.835a5.624,5.624,0,0,0-.249-.7.642.642,0,0,0-.234-.315,1.241,1.241,0,0,0-.322-.1Q124.849,16.013,124.38,15.954Zm3.545,2.681.132-.117a.735.735,0,0,1,.205-.381,4.785,4.785,0,0,1,.542-.513q.22-.161.461-.308a4.332,4.332,0,0,0,.461-.322q.923-.791,1.787-1.523a7.87,7.87,0,0,1,1-.754,6.925,6.925,0,0,1,.938-.505,3.3,3.3,0,0,1,1.15-.806,3.345,3.345,0,0,1,1.37-.41.461.461,0,0,1,.33.117.5.5,0,0,1,.154.293v.806a1.243,1.243,0,0,1-.242.754,2.31,2.31,0,0,1-.725.608q-.322.146-.645.322t-.645.322a4.933,4.933,0,0,1-.623.549q-.505.4-1.37,1.077-.4.308-.659.549a2.674,2.674,0,0,0-.366.388,2.627,2.627,0,0,0-.227.615,3.357,3.357,0,0,0-.081.776,1.477,1.477,0,0,0,.1.579.9.9,0,0,0,.308.388,2.032,2.032,0,0,0,.4.205,5.832,5.832,0,0,0,.637.205,3.912,3.912,0,0,1,.579-.168q.359-.081.8-.212.5-.293,1.018-.615t1.033-.659a2.034,2.034,0,0,1,.183-.1.982.982,0,0,0,.227-.154,4.257,4.257,0,0,1,.4-.439q.256-.249.623-.571a14.682,14.682,0,0,1,.586,1.348q-.542.439-1.1.9a4.857,4.857,0,0,1-1.274.754,5.209,5.209,0,0,0-.4.352,4.834,4.834,0,0,1-1.707,1.106,6.166,6.166,0,0,1-2.219.374,2.553,2.553,0,0,1-.5-.044,1.469,1.469,0,0,1-.366-.117q-.439-.293-.747-.513a5.094,5.094,0,0,1-.542-.447,1.707,1.707,0,0,1-.322-.4,1.339,1.339,0,0,1-.183-.5,4.251,4.251,0,0,1-.051-.718,1.635,1.635,0,0,1,.073-.381,1.647,1.647,0,0,0,.073-.366,6.911,6.911,0,0,0-.249-.659Q128.115,18.986,127.925,18.635Zm9.243,0,.132-.117a.735.735,0,0,1,.205-.381,4.785,4.785,0,0,1,.542-.513q.22-.161.461-.308a4.332,4.332,0,0,0,.461-.322q.923-.791,1.787-1.523a7.87,7.87,0,0,1,1-.754,6.925,6.925,0,0,1,.938-.505,3.3,3.3,0,0,1,1.15-.806,3.345,3.345,0,0,1,1.37-.41.461.461,0,0,1,.33.117.5.5,0,0,1,.154.293v.806a1.243,1.243,0,0,1-.242.754,2.31,2.31,0,0,1-.725.608q-.322.146-.645.322t-.645.322a4.933,4.933,0,0,1-.623.549q-.505.4-1.37,1.077-.4.308-.659.549a2.674,2.674,0,0,0-.366.388,2.627,2.627,0,0,0-.227.615,3.357,3.357,0,0,0-.081.776,1.477,1.477,0,0,0,.1.579.9.9,0,0,0,.308.388,2.032,2.032,0,0,0,.4.205,5.832,5.832,0,0,0,.637.205,3.912,3.912,0,0,1,.579-.168q.359-.081.8-.212.5-.293,1.018-.615t1.033-.659a2.034,2.034,0,0,1,.183-.1.982.982,0,0,0,.227-.154,4.257,4.257,0,0,1,.4-.439q.256-.249.623-.571a14.682,14.682,0,0,1,.586,1.348q-.542.439-1.1.9a4.857,4.857,0,0,1-1.274.754,5.209,5.209,0,0,0-.4.352,4.834,4.834,0,0,1-1.707,1.106,6.166,6.166,0,0,1-2.219.374,2.553,2.553,0,0,1-.5-.044,1.469,1.469,0,0,1-.366-.117q-.439-.293-.747-.513a5.094,5.094,0,0,1-.542-.447,1.707,1.707,0,0,1-.322-.4,1.339,1.339,0,0,1-.183-.5,4.251,4.251,0,0,1-.051-.718,1.635,1.635,0,0,1,.073-.381,1.647,1.647,0,0,0,.073-.366,6.911,6.911,0,0,0-.249-.659Q137.358,18.986,137.168,18.635Zm9.243,0q.322-.278.5-.439a3.7,3.7,0,0,0,.278-.278,2.92,2.92,0,0,0,.381-.425.78.78,0,0,0,.161-.366q.132-.5.308-1.245t.454-1.729q.132-.293.286-.74t.33-1a7.9,7.9,0,0,1,.439-1.333,7.084,7.084,0,0,1,.586-1.084,2.157,2.157,0,0,0,.205-.33,4.748,4.748,0,0,0,.205-.461,5.548,5.548,0,0,1,.286-.549q.183-.315.417-.74.6-.879,1.055-1.509t.747-1.011q.527-.63,1.062-1.179T155.186,3.2a5.24,5.24,0,0,1,.864-.623,1.343,1.343,0,0,1,.586-.2,1.405,1.405,0,0,1,.293.322.743.743,0,0,0,.205-.029.6.6,0,0,1,.557.308,1.869,1.869,0,0,1,.176.908,1.78,1.78,0,0,1-.044.344q-.044.212-.117.52a.58.58,0,0,0-.146.264q-.044.161-.073.322a2.863,2.863,0,0,1-.044.352,1.7,1.7,0,0,1-.073.264q-.19.352-.41.857t-.469,1.179q-.146.249-.366.659t-.527.908q-.146.278-.374.7t-.579.959a1.743,1.743,0,0,1-.3.447q-.212.242-.505.564a4.489,4.489,0,0,1-.491.806q-.4.571-1.121,1.479-.352.454-.908,1.128t-1.289,1.6q-.278,1.1-.417,1.956a9.452,9.452,0,0,0-.139,1.487,1.419,1.419,0,0,0,.037.374q.037.125.139.125a1.7,1.7,0,0,1,.212-.234,3.587,3.587,0,0,0,.286-.308,3.716,3.716,0,0,0,.652-.923q.374-.674.857-1.743a10.945,10.945,0,0,1,.762-1.487,1.754,1.754,0,0,1,.557-.623l.513-.22q.146-.059.264-.1a.574.574,0,0,1,.19-.044.443.443,0,0,1,.352.234,2,2,0,0,1,.264.645q.19.747.308,1.15t.132.476a1.569,1.569,0,0,0,.461.645,1.049,1.049,0,0,0,.652.205q.454-.073,1.069-.205.117.293.271.63t.315.718q-.352.234-.71.454t-.71.439a2.021,2.021,0,0,1-.674.2,7,7,0,0,1-1.025.066,1.528,1.528,0,0,1-1.384-.842q-.491-.842-.593-.828h-.088q-.234.293-.491.6t-.505.645a6.48,6.48,0,0,1-.454.776q-.293.439-.7.967a6.186,6.186,0,0,1-.85.879,1.088,1.088,0,0,1-.63.293,2.443,2.443,0,0,1-.872-.125.548.548,0,0,1-.374-.374q-.176-.82-.271-1.428a6.846,6.846,0,0,1-.1-1.033,1.672,1.672,0,0,1,.015-.234q.015-.1.029-.19.044-.19.1-.41a.149.149,0,0,0-.037-.11.172.172,0,0,0-.125-.037,1.271,1.271,0,0,1-.117.132,1.366,1.366,0,0,1-.205.161,5.435,5.435,0,0,0-.205-.527Q146.646,19.118,146.411,18.635ZM155.933,5.1q-.161,0-.645.579a20.2,20.2,0,0,0-1.23,1.707q-.425.63-.835,1.252l-.806,1.223a1.235,1.235,0,0,0-.256.352.869.869,0,0,0-.081.366q-.293.82-.571,1.538-.264.776-.432,1.2l-.2.5.073.073a3.289,3.289,0,0,0,.5-.557q.293-.337.71-.872t.945-1.252A12.132,12.132,0,0,0,154.189,9.5q.557-1.033,1.2-2.38.366-.732.549-1.172a1.952,1.952,0,0,0,.183-.615.344.344,0,0,0-.037-.168A.161.161,0,0,0,155.933,5.1Zm1.23,13.535.088-.1.044-.146a9.751,9.751,0,0,1,1.392-1.414,9,9,0,0,0,1.377-1.414.925.925,0,0,1,.337-.337.8.8,0,0,1,.381-.1,1.427,1.427,0,0,1,.864.256,1.254,1.254,0,0,1,.469.769q.1.454.19.916t.146.93q.1.293.249.886a2.64,2.64,0,0,0,.22.681.443.443,0,0,0,.22.212.893.893,0,0,0,.366.066,1.67,1.67,0,0,0,.542-.1,1.928,1.928,0,0,0,.571-.33q.22-.19.461-.388l.476-.388.586,1.348a6.65,6.65,0,0,1-.623.535q-.388.3-.93.7a7.5,7.5,0,0,1-1.025.652,1.631,1.631,0,0,1-.645.212,3.163,3.163,0,0,1-1.729-.308,4.139,4.139,0,0,1-.879-1.714,2.059,2.059,0,0,0-.176-.278q-.117-.161-.264-.381a3.434,3.434,0,0,0-.308-.505q-.132-.168-.22-.168a1.163,1.163,0,0,0-.63.315,8.791,8.791,0,0,0-.967.945q-.073-.19-.183-.454t-.227-.615a.81.81,0,0,0-.073-.161A.4.4,0,0,0,157.163,18.635Zm6.123-11.558a.8.8,0,0,1,.535.146.533.533,0,0,1,.168.425q-.088.41-.146.688-.146.527-.256.864t-.168.483a1.823,1.823,0,0,1-.359.564,2.473,2.473,0,0,1-.549.432,3.252,3.252,0,0,1-.564.33.7.7,0,0,1-.315.081q-.249-.029-.476-.051t-.447-.022a.7.7,0,0,1-.3-.4,2.312,2.312,0,0,1-.11-.791,1.961,1.961,0,0,1,.535-1.106,1.644,1.644,0,0,1,.945-.71q.249-.308.586-.7a1.257,1.257,0,0,1,.381-.168A2.009,2.009,0,0,1,163.286,7.077Z"
  transform="translate(-1.008 -1.188)" 
  fill="#707070"/>
</svg>
